<svg xmlns="http://www.w3.org/2000/svg" width="148" height="164" viewBox="0 0 148 164">
    <path fill="#1E1B1B" fill-rule="evenodd" d="M59.465 105.297c-.89.019-1.69-.062-2.398-.267-1.883-.545-2.4-2.63-2.282-3.898.032-.389.213-1.662 1.148-1.757l.064-.002c.298.002 1.304.128 1.948 1.667.479 1.118.988 2.565 1.52 4.257zm30.481.252c.558-1.676 1.103-3.113 1.591-4.232.748-1.702 1.905-1.645 2.038-1.631.935.111 1.1 1.388 1.125 1.776.093 1.27-.459 3.346-2.354 3.86-.71.193-1.526.26-2.4.227zm28.948-9.777l.61 18.521a4.383 4.383 0 0 1-1.252 3.24 4.37 4.37 0 0 1-3.193 1.338l-.394-.015-15.896-.057-.248 22.379-16.278-.135c.903-5.654 3.517-21.181 6.553-31.77 1.61.158 3.158.087 4.54-.288 3.68-.996 5.373-4.678 5.148-7.798-.212-2.898-1.958-4.968-4.452-5.269-1.51-.18-4.443.427-5.96 3.863-.594 1.35-1.246 3.097-1.903 5.124-2.976-.826-6.098-2.349-8.37-4.043 1.684-1.441 3.81-3.818 4.097-6.8.362-3.63-1.367-7.932-6.002-8.8l-1.711-.045-.338.028c-4.639.792-6.437 5.064-6.143 8.7.237 2.986 2.329 5.398 3.987 6.866-2.3 1.656-5.445 3.126-8.429 3.904-.633-2.047-1.253-3.806-1.82-5.153-1.464-3.462-4.401-4.118-5.895-3.962-2.502.26-4.284 2.3-4.542 5.195-.272 3.116 1.357 6.824 5.016 7.881 1.373.4 2.921.496 4.537.363 2.86 10.633 5.217 26.205 6.028 31.874l-15.504-.128.033-3.963c.107-13.002-6.01-23.266-11.417-32.324-2.798-4.69-5.44-9.12-6.96-13.478-4.577-13.072-4.632-25.102-.165-35.756 1.741-4.15 4.195-8.056 7.3-11.613 3.319-3.817 7.28-7.061 11.77-9.647 4.224-2.432 9.097-4.158 14.89-5.277 1.774-.344 4.646-.747 8.2-.717 6.903.057 17.226 1.776 27.22 9.642 8.747 6.883 15.063 17.04 15.701 25.109l-.084 10.193 9.753 22.682-8.427.136zm-47.417-2.133c-.015-.165-.287-3.97 2.854-4.623l1.023.008c3.125.704 2.794 4.503 2.772 4.67-.183 1.887-2.024 3.706-3.362 4.743-1.325-1.06-3.134-2.907-3.287-4.798zm3.248 9.62c2.559 2.088 6.427 4.175 10.34 5.283-3.205 11.28-5.848 27.324-6.66 32.469l-7.988-.066c-.726-5.16-3.103-21.246-6.114-32.574 3.929-1.043 7.832-3.066 10.422-5.111zm46.642-31.073l11.671 27.155-10.224.166.482 14.661a8.165 8.165 0 0 1-2.327 6.014 8.161 8.161 0 0 1-6.44 2.465l-12.014-.04-.244 22.398-55.007-.455.064-7.76c.098-11.937-5.485-21.297-10.883-30.345-2.9-4.86-5.634-9.451-7.287-14.167-4.898-13.99-4.923-26.938-.078-38.484 1.889-4.523 4.564-8.776 7.935-12.64 3.596-4.13 7.884-7.643 12.739-10.44C54.347 28.069 59.6 26.2 65.812 25c1.948-.375 5.077-.818 8.952-.785 7.493.062 18.698 1.924 29.534 10.454 7.922 6.239 16.303 17.304 17.146 27.958l-.077 9.56zm-30.14 56.704l3.784.031.032-3.795-3.785-.031-.031 3.795zm-.078 9.363l3.785.032.031-3.795-3.784-.031-.032 3.794zm39.797-65.78l16.654.139-.031 3.795-16.654-.138.031-3.795zm7.994-33.334l-14.492 8.22-1.868-3.305 14.492-8.218 1.868 3.303zM112.85 11.182l-8.444 14.375-3.27-1.926 8.452-14.374 3.262 1.925zM76.306.032l-.138 16.677-3.788-.032L72.518 0l3.788.031zM47.297 23.185l-3.303 1.871-8.205-14.512 3.298-1.87 8.21 14.51zM25.524 43.252l-1.92 3.273L9.25 38.067l1.917-3.272 14.358 8.457zm-8.836 28.277l-.032 3.796L0 75.187l.031-3.796 16.657.138zm-8.02 37.132l14.491-8.218 1.866 3.303-14.495 8.218-1.863-3.303zm43.498 45.892l.031-3.795 45.431.374-.031 3.798-45.43-.377zm7.437 9.195l.032-3.796 30.408.251-.031 3.797-30.409-.252z"/>
</svg>
