<svg xmlns="http://www.w3.org/2000/svg" width="705" height="122" viewBox="0 0 705 122">
    <defs>
        <linearGradient id="a" x1="100%" x2="0%" y1="0%" y2="100%">
            <stop offset="0%" stop-color="#00BBE5"/>
            <stop offset="100%" stop-color="#00FD8E"/>
        </linearGradient>
    </defs>
    <g fill="none" fill-rule="nonzero">
        <path fill="#00234B" d="M0 0h704.625v121.55H0z"/>
        <path fill="url(#a)" d="M66.075 80.085a7.3 7.3 0 0 0 2.77-.545 7.045 7.045 0 0 0 3.905-3.905 7.315 7.315 0 0 0 0-5.545 7.415 7.415 0 0 0-1.5-2.35 7.13 7.13 0 0 0-2.31-1.595 7.06 7.06 0 0 0-2.855-.59h-21.93v14.53h21.92zM77.92 60.68a16.91 16.91 0 0 1 3.78 18.705 17.11 17.11 0 0 1-9.07 9.07 16.31 16.31 0 0 1-6.55 1.345H34.5V31.535h31.58a16.44 16.44 0 0 1 6.5 1.345 17 17 0 0 1 9.115 9.07 16.91 16.91 0 0 1-3.775 18.73zm-11.845-19.4h-21.92v14.605h21.92a6.86 6.86 0 0 0 2.77-.59 7.615 7.615 0 0 0 2.35-1.595 7.04 7.04 0 0 0 1.555-2.35 7.5 7.5 0 0 0 .545-2.855c0-.952-.185-1.894-.545-2.775a7.04 7.04 0 0 0-3.905-3.905 7.32 7.32 0 0 0-2.77-.54v.005zm53.42-9.75h9.66v58.29H119.5V31.53h-.005zm86.345 9.735h-38.05v-9.74h57.955l-37.96 48.55h38.385v9.745h-58.375l38.045-48.555zm56.78-9.745h48.63v9.74h-19.4v48.55h-9.74V41.26h-19.5v-9.74h.01zm122.465 58.285l-11.255-19.42h-16.445v19.4h-9.675v-58.27h29.145c10.694.052 19.35 8.706 19.405 19.4a19.595 19.595 0 0 1-12 18l12 20.915h-11.175v-.025zm-8.235-48.55h-19.465v19.32l19.5.085a9.29 9.29 0 0 0 6.805-2.855 9.39 9.39 0 0 0 2.855-6.89 9.75 9.75 0 0 0-9.695-9.66zm102.81 38.8h-26.775L447.93 89.8h-10.855l29.145-58.29 29.165 58.29h-10.85l-4.875-9.745zm-22-9.655h17.135l-8.57-17.135L457.66 70.4zm102.295-38.895c3.88-.031 7.726.74 11.295 2.265a29.63 29.63 0 0 1 9.28 6.3l-6.885 6.89a18.675 18.675 0 0 0-13.69-5.71 19 19 0 0 0-7.56 1.5 19.5 19.5 0 0 0-6.175 4.16 20.095 20.095 0 0 0-4.2 6.175 19.16 19.16 0 0 0 0 15.12 20.455 20.455 0 0 0 4.165 6.18 18.875 18.875 0 0 0 6.175 4.155 19.27 19.27 0 0 0 7.6 1.5 19 19 0 0 0 13.69-5.63l6.89 6.805a29.63 29.63 0 0 1-9.28 6.3 29.125 29.125 0 0 1-22.635-.04 30.255 30.255 0 0 1-9.28-6.255 29.385 29.385 0 0 1-6.3-9.24 28.68 28.68 0 0 1 0-22.555 29.72 29.72 0 0 1 15.58-15.625 28.025 28.025 0 0 1 11.33-2.295zm80.805 29.14l29.125 29.145h-13.69l-25.2-25.03v25.03h-9.66V31.5h9.66v25.115L656.19 31.5h13.695L640.76 60.645z"/>
    </g>
</svg>
