<svg xmlns="http://www.w3.org/2000/svg" width="164" height="93" viewBox="0 0 164 93">
    <path fill="#1E1B1B" fill-rule="evenodd" d="M54.277 22.417l-.15 18.396 1.312.433c.169.056 4.131 1.32 8.084-1.04 3.084-1.84 5.227-5.278 6.377-10.23l13.37.112c1.18 4.016 5.09 9.626 14.056 9.7l4.4.037 27.813 19.223a5.091 5.091 0 0 1 1.25 7.073 5.061 5.061 0 0 1-7.062 1.245l-7.057-4.882-.021-.017-19.884-13.931-2.17 3.119 19.877 13.93a5.036 5.036 0 0 1 2.085 3.278 5.058 5.058 0 0 1-.834 3.797 5.034 5.034 0 0 1-3.266 2.091 5.02 5.02 0 0 1-3.786-.837l-19.884-13.93-.158.228-.074-.05-2.121 3.155 13.61 9.198a5.098 5.098 0 0 1 1.252 7.075 5.038 5.038 0 0 1-3.272 2.091 5.002 5.002 0 0 1-3.754-.818L81.48 71.556l-2.234 3.078 4.728 3.44-.096.138c2.29 1.604 2.85 4.776 1.253 7.074a5.071 5.071 0 0 1-6.878 1.37 7.649 7.649 0 0 0 .445-3.87 7.684 7.684 0 0 0-2.994-5.097 7.604 7.604 0 0 0-3.937-1.5l.85-1.132a8.514 8.514 0 0 0 1.638-6.351 8.54 8.54 0 0 0-3.322-5.652 8.474 8.474 0 0 0-5.065-1.726 8.554 8.554 0 0 0-5.125 1.678 8.527 8.527 0 0 0-3.06-4.482 8.462 8.462 0 0 0-5.064-1.725 8.569 8.569 0 0 0-5.03 1.604 8.312 8.312 0 0 0-2.925-4.157l-.32-.244a8.286 8.286 0 0 0-4.95-1.683 8.171 8.171 0 0 0-1.123.075c-.14-.307-.262-.583-.38-.854a35.464 35.464 0 0 0-.827-1.81c-1.256-2.6-3.77-5.004-5.33-6.334L49.61 17.738c.33-.473.572-.99.732-1.535l15.031.125-11.095 6.09zM74.19 86.225l-.764 1.02c-1.263 1.677-3.8 2.045-5.484.775a3.938 3.938 0 0 1-.77-5.495l.767-1.023a3.885 3.885 0 0 1 3.167-1.564 3.88 3.88 0 0 1 2.318.79 3.896 3.896 0 0 1 1.52 2.588 3.934 3.934 0 0 1-.754 2.909zM57.357 81.13a4.779 4.779 0 0 1-.94-6.67l.004-.005 1.315-1.753 4.257-5.67a4.706 4.706 0 0 1 3.842-1.9 4.702 4.702 0 0 1 2.81.958 4.71 4.71 0 0 1 1.846 3.144 4.727 4.727 0 0 1-.903 3.532l-5.574 7.423c-1.532 2.035-4.617 2.483-6.657.94zm-10.625-8.025c-1.97-1.486-2.43-4.213-1.178-6.279.27-.27.525-.554.756-.861.298-.396.547-.813.764-1.24l1.67-2.224a4.714 4.714 0 0 1 3.842-1.9 4.699 4.699 0 0 1 2.815.961 4.784 4.784 0 0 1 .949 6.657l-2.965 3.947c-1.53 2.035-4.614 2.48-6.653.939zm-9.83-8.533l-.323-.24a4.556 4.556 0 0 1-1.767-3.01 4.543 4.543 0 0 1 .874-3.382 4.498 4.498 0 0 1 3.676-1.818c.982.008 1.91.324 2.699.918l.322.245c1.713 1.296 2.243 3.585 1.415 5.48l-1.034 1.377c-.057.076-.103.157-.158.233-1.573 1.327-4.003 1.482-5.705.197zM161.88 33.816l2.12 3.159a404.473 404.473 0 0 0-18.684 13.37c-1.486 1.133-3.215 1.736-4.862 1.722a6.48 6.48 0 0 1-.994-.084c-1.524-.252-2.819-1.069-3.641-2.296L114.69 18.276a5.259 5.259 0 0 1-.706-1.546l-40.826-.338-15.109 8.29-.108 13.15a6.507 6.507 0 0 0 3.69-.922c2.393-1.457 4.023-4.548 4.863-9.187l.285-1.577 19.695.163.204 1.65c.043.316 1.203 7.947 10.678 8.026l5.562.046L131.7 55.924c4.014 2.811 4.995 8.362 2.2 12.376a8.843 8.843 0 0 1-7.35 3.79 8.814 8.814 0 0 1-4.99-1.596l-1.137-.787a8.844 8.844 0 0 1-1.592 5.131 8.798 8.798 0 0 1-5.715 3.66 8.777 8.777 0 0 1-6.618-1.466l-.51-.357a8.836 8.836 0 0 1-1.587 5.093 8.78 8.78 0 0 1-5.715 3.66 8.775 8.775 0 0 1-6.618-1.465l-2.246-1.634a8.85 8.85 0 0 1-8.936 8.928 8.792 8.792 0 0 1-4.697-1.41 7.736 7.736 0 0 1-5.963 2.765 7.633 7.633 0 0 1-4.566-1.555 7.693 7.693 0 0 1-3.03-5.531 8.49 8.49 0 0 1-2.491.368 8.482 8.482 0 0 1-5.067-1.725 8.564 8.564 0 0 1-3.393-6.572 8.5 8.5 0 0 1-2.165.272 8.479 8.479 0 0 1-5.067-1.724c-2.262-1.71-3.43-4.339-3.39-6.983a8.37 8.37 0 0 1-1.486.137 8.263 8.263 0 0 1-4.949-1.684l-.32-.242a8.322 8.322 0 0 1-3.25-5.52 8.33 8.33 0 0 1 1.605-6.202 8.29 8.29 0 0 1 2.05-1.927c-.102-.226-.196-.444-.287-.655-.23-.51-.443-1.007-.766-1.677-.9-1.859-2.793-3.715-4.106-4.863l-1.577 2.265c-.849 1.214-2.152 2.007-3.678 2.235-.332.048-.66.07-.995.067-1.652-.013-3.372-.644-4.839-1.8A404.693 404.693 0 0 0 0 35.616l2.17-3.124A409.568 409.568 0 0 1 20.803 46.3c.937.74 2.032 1.102 2.929.965.496-.072.878-.292 1.128-.65L46.502 15.56c.246-.358.323-.791.22-1.288-.187-.892-.897-1.797-1.91-2.424a424.874 424.874 0 0 1-13.393-8.694L33.543 0A403.476 403.476 0 0 0 46.81 8.611c1.535.952 2.681 2.295 3.282 3.786l22.108.183 42.099.348c.624-1.481 1.79-2.806 3.346-3.733A418.477 418.477 0 0 0 131.047.807l2.073 3.189a413.084 413.084 0 0 1-13.536 8.468c-1.022.612-1.749 1.505-1.948 2.394-.115.495-.045.93.202 1.291l21.123 31.41c.24.363.624.588 1.124.672.886.144 1.987-.193 2.938-.915a407.503 407.503 0 0 1 18.857-13.5zm-21.907 8.698l-1.954-3.261 3.253-1.96 1.952 3.262-3.251 1.96zm-.657-8.483l-3.249 1.96-1.95-3.263 3.251-1.959 1.948 3.262zm-109.5-1.16l-2.187 3.105-3.103-2.198 2.19-3.104 3.1 2.196zm-4.38 6.211l-2.19 3.106-3.097-2.195 2.185-3.106 3.102 2.195z"/>
</svg>
