<svg xmlns="http://www.w3.org/2000/svg" width="164" height="160" viewBox="0 0 164 160">
    <path fill="#1E1B1B" fill-rule="nonzero" d="M59.8 43.914c.65-.649 3.682-4.107 3.465-9.08 0-2.377-1.082-6.268-4.98-9.727L36.848 4.787C35.982 3.705 32.3.246 26.887.03c-2.815-.217-6.93.648-11.476 4.755-.434.433-8.662 7.999-11.693 17.294-1.516 4.108-18.623 48.424 35.945 100.09l1.082 1.08c30.532 29.4 57.816 36.318 76.438 36.318 14.508 0 23.82-4.108 25.768-4.972 9.095-3.46 16.457-12.106 16.673-12.322 4.115-4.54 4.548-8.864 4.331-11.674-.433-5.404-4.114-8.863-5.197-9.512l-21.437-20.32c-3.898-3.891-7.579-4.54-9.96-4.54-4.764 0-8.23 3.027-8.879 3.891l-8.228 7.999c-2.599 2.378-6.28 3.026-9.311 1.297-9.96-5.188-18.839-11.673-27.5-19.888l-.867-.865c-8.661-8.214-15.59-16.861-21.004-26.59-1.732-3.026-1.299-6.7.866-9.295l7.363-8.863zM43.778 66.396c6.063 10.377 13.425 19.672 22.52 28.32l.866.864c9.095 8.863 18.839 15.78 29.449 21.185 6.28 3.243 14.075 2.162 19.272-2.81l8.445-8.215s.866-.865 2.165-1.08c.433-.217 2.166-.433 4.547 1.945l21.438 20.536.433.217s1.949 1.513 2.165 3.89c.217 1.514-.65 3.243-2.165 5.189-1.733 2.162-7.58 7.782-13.209 9.944l-.433.216c-.433.216-40.926 19.888-92.245-29.616l-1.3-1.08C-5.81 67.26 11.08 26.835 11.947 25.322l.216-.432c2.166-6.918 9.312-13.62 9.528-13.836 1.732-1.513 3.248-2.377 4.764-2.377 2.382 0 4.114 1.945 4.114 1.945l21.87 20.97c2.599 2.377 2.166 3.89 2.166 4.323-.217 1.297-1.083 2.161-1.083 2.161L45.51 46.94c-4.547 5.405-5.413 13.187-1.732 19.456z"/>
</svg>
