<svg xmlns="http://www.w3.org/2000/svg" width="164" height="155" viewBox="0 0 164 155">
    <path fill="#1E1B1B" fill-rule="evenodd" d="M81.999 26.379c3.343 0 6.066 2.71 6.066 6.037 0 3.332-2.723 6.04-6.066 6.04s-6.068-2.708-6.068-6.04c0-3.328 2.725-6.037 6.068-6.037m0 15.816c-5.414 0-9.822-4.387-9.822-9.779 0-5.388 4.408-9.775 9.822-9.775 5.414 0 9.822 4.387 9.822 9.775 0 5.392-4.408 9.78-9.822 9.78zm69.77 40.344C156.897 83.557 164 85.8 164 90.43c0 6.228-13.034 9.065-25.148 9.065-3.29 0-6.646-.211-9.792-.641l-24.873 35.22c6.91 2.08 10.757 5.116 10.757 8.675 0 7.534-16.573 11.476-32.945 11.476s-32.943-3.942-32.943-11.476c0-3.559 3.846-6.595 10.757-8.676L34.94 98.853c-3.148.43-6.507.642-9.799.642C13.034 99.495 0 96.658 0 90.43c0-4.633 7.105-6.874 12.234-7.892l.844-28.823H7.822V26.976c0-6.195 5.058-11.235 11.28-11.235h1.122l4.7 8.706h.445l4.695-8.706h1.12c6.222 0 11.293 5.04 11.293 11.235v26.739H37.21l.845 28.823c5.13 1.016 12.237 3.258 12.237 7.892 0 3.776-4.794 6.303-11.265 7.71l24.674 34.935c.544-.118 1.1-.232 1.67-.34l1.166-39.632h-7.041V58.03c0-7.925 6.475-14.372 14.434-14.372h1.12l6.277 11.623h1.347l6.27-11.623h1.12c7.961 0 14.438 6.447 14.438 14.372v35.073H97.46l1.164 39.632c.573.11 1.13.223 1.676.342l24.671-34.938c-6.47-1.405-11.265-3.933-11.265-7.709 0-4.632 7.104-6.874 12.234-7.89l.846-28.825h-5.256V26.976c0-6.195 5.061-11.235 11.28-11.235h1.121l4.698 8.706h.447l4.696-8.706h1.12c6.224 0 11.285 5.04 11.285 11.235v26.739h-5.256l.848 28.824zm-12.917 13.217c14.117 0 21.39-3.734 21.39-5.326 0-.757-2.166-2.692-8.36-4.045l.134 4.549H141.45l-2.598-21.112-2.595 21.112h-10.563l.133-4.55c-6.192 1.351-8.363 3.287-8.363 4.046 0 1.592 7.28 5.326 21.388 5.326zm-13.567-45.78h1.611l.402-13.67 3.754.11-1.489 50.779h3.364l4.014-32.569 1.912.235 1.914-.235 4.01 32.569h3.368l-1.496-50.78 3.76-.11.402 13.671h1.61v-23c0-3.766-2.804-6.894-6.444-7.418l-4.651 8.63h-4.94l-4.656-8.63c-3.64.524-6.445 3.652-6.445 7.418v23zM111.19 142.75c0-1.477-3.433-4.34-12.454-6.183l.183 6.23H86.025L82 110.076l-4.022 32.72H65.077l.183-6.23c-9.018 1.843-12.449 4.705-12.449 6.183 0 3.155 11.371 7.738 29.188 7.738 17.82 0 29.191-4.583 29.191-7.738zM63.25 89.364h3.397l.555-18.86 3.757.11-2.012 68.445h5.705l5.419-44.034 1.928.235 1.927-.235 5.424 44.034h5.7l-2.01-68.445 3.756-.11.554 18.86h3.392V58.03c0-5.493-4.206-10.03-9.584-10.577L84.916 59.02H79.08l-6.24-11.567c-5.379.547-9.59 5.084-9.59 10.577v31.334zm-38.109 6.392c14.118 0 21.395-3.734 21.395-5.326 0-.759-2.17-2.695-8.367-4.047l.133 4.551H27.744l-2.598-21.106-2.6 21.106H11.989l.134-4.55c-6.199 1.353-8.368 3.288-8.368 4.046 0 1.592 7.276 5.326 21.387 5.326zm-13.567-45.78h1.614l.401-13.67 3.758.11-1.492 50.779h3.372l4.007-32.569 1.913.235 1.912-.235 4.012 32.569h3.364l-1.493-50.78 3.758-.11.4 13.671h1.618v-23c0-3.766-2.81-6.894-6.448-7.418l-4.659 8.63h-4.93l-4.658-8.63c-3.642.524-6.449 3.652-6.449 7.418v23zm127.278-34.392c-4.319 0-7.826-3.496-7.826-7.792 0-4.297 3.507-7.792 7.826-7.792 4.317 0 7.83 3.495 7.83 7.792 0 4.296-3.513 7.792-7.83 7.792zm0-11.846c-2.242 0-4.073 1.818-4.073 4.054 0 2.235 1.83 4.053 4.073 4.053 2.25 0 4.072-1.818 4.072-4.053 0-2.236-1.823-4.054-4.072-4.054zM25.142 15.584c-4.318 0-7.826-3.496-7.826-7.792C17.316 3.495 20.824 0 25.14 0c4.322 0 7.831 3.495 7.831 7.792 0 4.296-3.509 7.792-7.83 7.792zm0-11.846c-2.242 0-4.072 1.818-4.072 4.054 0 2.235 1.83 4.053 4.071 4.053 2.25 0 4.075-1.818 4.075-4.053 0-2.236-1.826-4.054-4.075-4.054z"/>
</svg>
