<svg xmlns="http://www.w3.org/2000/svg" width="164" height="138" viewBox="0 0 164 138">
    <path fill="#1E1B1B" fill-rule="evenodd" d="M159.741 96.037c-.606 1.488-1.764 2.644-3.394 3.333l-61.004 31.903a19.084 19.084 0 0 1-14.722 1.15l-35.27-11.755-12.125-.084V81.858h14.798a26.4 26.4 0 0 1 11.085 2.46l19.902 9.286h26.157V93.6c2.867.114 5.169 2.476 5.169 5.368a5.39 5.39 0 0 1-5.385 5.382H74.398l-.327.03c-2.775.487-8.015 2.857-8.015 8.312h3.797c0-3.317 3.925-4.364 4.735-4.543h30.58v-.01a9.108 9.108 0 0 0 4.217-1.137l42.486-18.803c3.041-1.274 6.582.173 7.86 3.236a5.986 5.986 0 0 1 .01 4.603m-83.85-53.124c-.199-.052-4.866-1.205-10.478 1.688a1.894 1.894 0 0 0-.817 2.557 1.898 1.898 0 0 0 2.56.819c4.269-2.198 7.648-1.417 7.81-1.379 2.65.643 4.843 1.867 6.656 3.371-.858 2.273-2.495 4.035-4.735 5.028-3.07 1.357-6.543 1.076-10.524.47-5.482-.837-11.397-1.273-17.584-1.299 3.25-2.746 6.037-6.368 8.32-9.34l1.182-1.525c2.874-3.672 8.218-7.374 13.683-7.374 3.026 0 5.626 1.179 7.72 3.507 1.553 1.723 2.436 3.937 2.576 6.243a20.2 20.2 0 0 0-6.37-2.766m21.547-29.556c3.74-7.9 10.773-9.559 16.015-9.559 5.838 0 12.27 2.088 17.225 5.582.74.52 1.514 1.076 2.323 1.661 5.041 3.624 11.411 8.21 17.958 10.519-9.736 2.836-18.526 6.135-26.672 10-5.294 2.509-9.734 4.613-15.574 3.882-4.623-.58-8.441-3.217-10.751-7.427-.088-.16-.166-.322-.249-.484.756-1.317 2.428-3.483 4.907-5.424 1.618-.017 6.72.187 10.344 3.198.355.296.783.438 1.215.438a1.902 1.902 0 0 0 1.212-3.363c-2.219-1.843-4.802-2.854-7.119-3.411a17.728 17.728 0 0 1 7.332-.972c3.41.273 7.975.973 13.058 4.033.897.541 2.067.25 2.61-.648a1.904 1.904 0 0 0-.65-2.607c-5.763-3.467-10.893-4.262-14.717-4.562-8.896-.695-15.968 4.273-19.701 8.849-.6-3.273-.198-6.675 1.234-9.705m65.801 76.615a9.736 9.736 0 0 1 .017 7.512 9.738 9.738 0 0 1-5.302 5.323l-60.854 31.838a22.893 22.893 0 0 1-10.5 2.54c-2.425 0-4.858-.383-7.185-1.16l-34.97-11.656H33.225v6.712H0v-3.8h29.425V75.149H6.082v-3.8h27.144v6.711h14.798c4.352 0 8.748.975 12.691 2.818l19.138 8.927h9.68V63.55c-.2-.907-1.49-6.162-5.083-10.675-1.334 2.468-3.407 4.436-6.03 5.596-2.1.929-4.205 1.36-6.62 1.36-2.011 0-3.953-.296-6.013-.612-7.531-1.145-16.105-1.482-24.648-1.089-1.065.054-1.846-.675-1.97-1.653a1.9 1.9 0 0 1 1.487-2.1c5.154-1.103 9.933-7.323 13.432-11.864l1.198-1.555c3.446-4.393 9.94-8.829 16.678-8.829 4.088 0 7.737 1.647 10.542 4.764 2.864 3.174 4.102 7.544 3.388 11.802 1.471 1.519 2.67 3.166 3.64 4.789V51.75c0-.076.013-.148.022-.222-.007-.048-.02-.094-.023-.145-.03-.583-.66-13.814 3.98-23.938-1.98-5.086-1.836-10.793.493-15.713C97.582 4.166 104.492 0 113.452 0c6.593 0 13.85 2.346 19.417 6.278.745.524 1.53 1.09 2.351 1.678 6.928 4.985 16.487 11.901 24.623 11.237a1.917 1.917 0 0 1 2.028 1.584c.16.976-.459 1.91-1.416 2.153-12.996 3.256-24.297 7.203-34.543 12.061-4.765 2.26-9.268 4.398-14.853 4.398-.926 0-1.878-.061-2.823-.177-5.017-.631-9.421-3.291-12.372-7.407-3.032 8.843-2.544 19.257-2.537 19.38.007.118-.001.235-.017.35.009.071.022.142.022.215v38.054h11.62v-.015c5.063 0 9.177 4.117 9.177 9.178 0 .638-.066 1.26-.19 1.86l36.427-16.12c2.463-1.023 5.126-1.03 7.551-.034a9.756 9.756 0 0 1 5.321 5.3zm-145.18 30.076v-4.561h3.8v4.56h-3.8zm-8.364 0v-4.561h3.8v4.56h-3.8z"/>
</svg>
