<svg xmlns="http://www.w3.org/2000/svg" width="129" height="164" viewBox="0 0 129 164">
    <path fill="#1E1B1B" fill-rule="evenodd" d="M55.852 13.843V0h3.85v13.843h-3.85zm-21.34 6.13l-3.337 1.922-6.933-11.99 3.336-1.92 6.933 11.989zM15.758 37.87l-1.929 3.327-12.003-6.92 1.922-3.327 12.01 6.92zm98.746-4.946l-12.003 6.923-1.924-3.327 12.008-6.923 1.919 3.327zM91.52 9.128l-6.928 11.99-3.333-1.922 6.928-11.988 3.333 1.92zM84.93 77.88c-15.355 1.314-15.112 19.746-15.1 20.533l-3.848.093c-.193-7.892 3.443-23.158 18.615-24.454 1.83-.159 2.022-.756 2.473-2.205.174-.584.375-1.251.741-1.865 1.04-1.732 2.825-2.803 4.78-2.866 3.354-.107 4.573-1.058 5.72-2.198a7.363 7.363 0 0 0 2.165-5.23 7.357 7.357 0 0 0-2.166-5.23c-1.422-1.416-3.199-2.166-5.15-2.166h-1.715l-.302-2.624.65-.721a6.329 6.329 0 0 0 1.87-4.51 6.332 6.332 0 0 0-1.87-4.51c-2.412-2.407-6.62-2.413-9.028.002l-.075-.075a10.288 10.288 0 0 1-1.469 1.863L78.496 39a6.317 6.317 0 0 0 1.876-4.508 6.322 6.322 0 0 0-1.876-4.512c-2.403-2.408-6.616-2.411-9.03 0a6.343 6.343 0 0 0-1.867 4.512h-3.846c0-1.648.393-3.234 1.125-4.66a6.268 6.268 0 0 0-1.807-3.668c-2.414-2.414-6.624-2.414-9.03 0a6.368 6.368 0 0 0-1.786 3.487 10.136 10.136 0 0 1 1.553 5.404v14.758c0 3.586 2.923 6.5 6.516 6.5v3.845c-5.71 0-10.364-4.641-10.364-10.345V35.055c0-1.707-.66-3.31-1.87-4.514-2.406-2.406-6.618-2.409-9.026 0a6.333 6.333 0 0 0-1.877 4.514c0 1.702.667 3.302 1.877 4.51l-2.723 2.714a10.235 10.235 0 0 1-1.592-2.068c-2.422-2.317-6.556-2.285-8.919.092a6.373 6.373 0 0 0-.01 9.02l.442.435.453 2.72-2.138.138a6.734 6.734 0 0 0-4.374 1.96 6.696 6.696 0 0 0-1.966 4.755 6.7 6.7 0 0 0 1.966 4.761c2.21 2.196 5.86 2.57 8.456.872l2.106 3.215a10.53 10.53 0 0 1-5.294 1.708l.001.01c-3.466.63-5.833 3.763-5.491 7.287.32 3.399 3.426 6.061 7.075 6.061l.45.057c3.527.849 10.276 5.1 10.634 15.09l-3.848.134c-.31-8.766-6.402-11.09-7.516-11.44-5.487-.137-10.13-4.274-10.628-9.536-.34-3.56 1.087-6.86 3.596-9.028a10.608 10.608 0 0 1-2.258-1.712 10.51 10.51 0 0 1-3.1-7.479c0-2.824 1.1-5.477 3.1-7.473a10.537 10.537 0 0 1 3.731-2.41 10.136 10.136 0 0 1-1.11-4.634c0-2.731 1.069-5.3 2.997-7.228a10.159 10.159 0 0 1 7.236-2.995c1.032 0 2.04.152 3 .444a10.145 10.145 0 0 1 3-7.21c3.37-3.373 8.938-3.795 12.862-1.287a10.193 10.193 0 0 1 2.121-3.093c3.857-3.864 10.605-3.865 14.47 0a10.15 10.15 0 0 1 2.028 2.898 10.162 10.162 0 0 1 6.165-2.075c2.73 0 5.306 1.065 7.236 2.994a10.14 10.14 0 0 1 2.996 7.23c0 .066-.008.13-.01.194.98-.306 2.01-.47 3.068-.47 2.739 0 5.305 1.064 7.244 2.992a10.17 10.17 0 0 1 2.994 7.23c0 1.593-.363 3.128-1.048 4.517a11.225 11.225 0 0 1 4.567 2.785 11.155 11.155 0 0 1 3.297 7.948c0 3.002-1.17 5.825-3.297 7.948-1.903 1.896-4.043 3.187-8.32 3.324-.626.018-1.239.399-1.594.99-.134.214-.25.608-.376 1.023-.487 1.585-1.39 4.528-5.813 4.907zM33.343 59.728c-.14-3.063 1.754-9.347 9.959-11.237l.874 3.744c-7.171 1.652-6.998 7.084-6.99 7.314l-3.843.179zm31.34 5.203c1.62-2.6 6.747-6.7 14.59-3.605L77.854 64.9c-6.837-2.702-9.779 1.867-9.898 2.063l-3.27-2.032zM78.59 46.61l-3.823.47c-.506-4.155-4.741-5.529-4.923-5.586l1.124-3.676c.273.082 6.797 2.126 7.622 8.791zM48.348 70.737c.3.232 7.338 5.683 5.313 14.183l-3.74-.89c1.448-6.091-3.846-10.191-3.902-10.229l2.329-3.064zm80.51 32.064l-12.142.298.75 17.96a9.56 9.56 0 0 1-2.851 7.187c-1.916 1.881-4.524 2.853-7.243 2.708l-14.835.072-.078 32.465H78.657v-3.845h9.955l.087-32.443 18.776-.09c1.76.094 3.28-.475 4.443-1.61a5.62 5.62 0 0 0 1.7-4.285l-.91-21.869 10.314-.253-12.15-27.551V59.383c-.23-2.51-.943-5.36-2.13-8.309l3.574-1.431c1.33 3.299 2.133 6.52 2.398 9.573v11.52l14.143 32.066zM8.247 94.276c1.89 5.246 5.125 10.556 8.55 16.174 6.559 10.78 14.008 22.996 14.008 38.506V164h-3.847v-15.044c0-14.43-6.836-25.655-13.45-36.51-3.527-5.787-6.865-11.256-8.878-16.869-6.008-16.659-6.169-32.114-.49-45.941l3.56 1.456c-5.304 12.92-5.128 27.449.547 43.184zm70.333 45.176v-3.843h3.848v3.843H78.58zm0 8.968v-3.841h3.848v3.841H78.58z"/>
</svg>
