<svg xmlns="http://www.w3.org/2000/svg" width="145" height="164" viewBox="0 0 145 164">
    <path fill="#1E1B1B" fill-rule="evenodd" d="M134.895 91.418l9.425.078-.6 72.504-134.37-1.106.078-9.404L0 153.413l.6-72.506 86.755.714.212-25.587c-2.222 1.17-9.571 4.69-17.499 4.625-2.88-.024-5.55-.525-7.945-1.489-11.689-4.709-16.175-19.972-16.36-20.618l-.4-1.406 1.265-.733c.363-.207 8.887-5.073 18.189-4.997 2.871.023 5.548.525 7.939 1.49 8.07 3.248 12.706 11.525 14.865 16.554l.056-6.74c-.18-1.69-2.137-22.057 9.518-33.483 8.33-8.169 21.305-9.292 28.3-9.235 3.288.027 5.423.307 5.515.319l1.456.19.164 1.452c.103.89 2.401 21.908-9.497 33.577-8.323 8.171-21.308 9.294-28.31 9.236a57.355 57.355 0 0 1-3.397-.126l-.307 37.003 43.855.36-.079 9.405zm5.094 68.799l.539-65-5.664-.047-.491 59.35-121.18-.999-.047 5.651 126.843 1.045zM3.79 149.691l126.85 1.044.538-65L4.328 84.689l-.538 65.002zM70.1 56.909c5.492.045 10.821-1.929 13.81-3.276-3.15-2.4-9.73-6.541-18.496-7.345l.344-3.736c7.347.673 13.22 3.39 17.186 5.85-2.225-4.339-5.985-9.76-11.592-12.018-1.955-.788-4.165-1.197-6.565-1.217-6.258-.051-12.304 2.515-14.918 3.791 1.354 3.7 5.599 13.484 13.665 16.732 1.95.788 4.162 1.199 6.566 1.219zm29.729-44.997c-6.686 6.558-8.285 16.92-8.548 23.706 3.442-5.252 9.645-12.691 19.48-17.859l1.755 3.32c-11.429 6.003-17.64 15.49-20.037 19.873.69.035 1.48.063 2.376.071 6.42.053 18.282-.935 25.64-8.159 8.897-8.723 8.789-24.123 8.513-28.967-.87-.066-2.09-.13-3.543-.142-6.409-.053-18.269.935-25.636 8.157zm12.18 83.158c-.03 3.613 2.904 6.577 6.521 6.607l1.885.016-.272 32.9-1.885-.015c-3.618-.03-6.6 2.887-6.63 6.5l-.015 1.877-88.669-.731.016-1.876c.03-3.613-2.895-6.579-6.518-6.61l-1.88-.014.273-32.9 1.88.015c3.623.03 6.596-2.886 6.626-6.5l.016-1.878 88.667.73-.015 1.879zm4.394 35.913l.213-25.74a10.366 10.366 0 0 1-8.214-8.329l-81.487-.67a10.356 10.356 0 0 1-8.348 8.192l-.213 25.74a10.352 10.352 0 0 1 8.21 8.326l81.488.671a10.36 10.36 0 0 1 8.35-8.19zm-45.457-21.454c-1.77-1.556-4.985-1.584-6.795-.054-.819.695-1.278 1.604-1.286 2.557-.008.952.436 1.87 1.244 2.58.89.778 2.094 1.213 3.393 1.224 2.198.018 4.269.783 5.837 2.155 1.643 1.446 2.547 3.373 2.53 5.431-.017 2.058-.953 3.97-2.616 5.385-1.13.957-2.51 1.596-3.997 1.885l-.036 4.22-3.761-.03.034-4.223c-1.481-.313-2.846-.974-3.957-1.945-1.644-1.445-2.546-3.374-2.53-5.43l3.765.03c-.007.954.437 1.87 1.249 2.582 1.774 1.554 4.994 1.582 6.799.053.822-.696 1.278-1.605 1.285-2.557.009-.952-.433-1.87-1.25-2.581-.884-.778-2.088-1.212-3.384-1.223-2.2-.018-4.271-.785-5.84-2.156-1.644-1.445-2.547-3.372-2.53-5.43.018-2.058.951-3.972 2.613-5.385 1.132-.956 2.508-1.594 3.996-1.884l.034-4.222 3.762.031-.035 4.22c1.483.314 2.85.975 3.963 1.949 1.643 1.443 2.546 3.371 2.529 5.43l-3.764-.032c.008-.954-.433-1.869-1.252-2.58z"/>
</svg>
