<svg xmlns="http://www.w3.org/2000/svg" width="164" height="164" viewBox="0 0 164 164">
    <path fill="#1E1B1B" fill-rule="evenodd" d="M127.615 90.163c4.126-1.061 7.125-4.828 7.125-9.179a9.43 9.43 0 0 0-5.788-8.73 15.255 15.255 0 0 1-3.99 2.719l-1.63-3.482a11.547 11.547 0 0 0 6.64-10.423c0-6.34-5.156-11.496-11.496-11.496-.498 0-.987.031-1.468.093l-.879.11-3.02-2.743v-.852c0-1.773-.507-7.57-7.053-7.57a6.824 6.824 0 0 0-4.836 2.035 9.118 9.118 0 0 1-.708.986l-1.485-1.242-1.63-1.169c.23-.321.48-.623.742-.914a5.247 5.247 0 0 0 .642-2.495 5.24 5.24 0 0 0-5.234-5.235 5.24 5.24 0 0 0-5.234 5.235v10.275c2.638-.085 6.068.875 8.31 4.746l-3.328 1.927c-1.493-2.574-3.63-2.92-4.982-2.835v20.001c2.006-.172 4.935-.056 7.615 1.47 2.672 1.52 4.493 4.06 5.413 7.548l-3.716.983c-.649-2.443-1.848-4.188-3.579-5.178-1.977-1.137-4.289-1.128-5.733-.964v28.952c2.285-2.768 5.667-4.998 10.44-5.06l.048 3.843c-8.153.107-10.233 8.678-10.488 9.895v14.742a5.24 5.24 0 0 0 5.234 5.234 5.235 5.235 0 0 0 5.23-5.141 11.913 11.913 0 0 1-2.393-5.621l3.803-.545c.642 4.441 4.772 7.538 9.217 6.903 3.763-.543 6.552-3.598 6.93-7.223a18.485 18.485 0 0 1-3.25.304v-3.844c8.066 0 14.628-6.56 14.628-14.625a14.565 14.565 0 0 0-9.177-13.581l1.43-3.566a18.484 18.484 0 0 1 7.65 5.712zm10.965-9.179c0 5.702-3.664 10.69-8.86 12.547a18.495 18.495 0 0 1 1.838 8.067c0 7.656-4.686 14.237-11.34 17.033.153 5.986-4.2 11.286-10.269 12.16a11.937 11.937 0 0 1-7.857-1.59c-1.257 3.51-4.61 6.035-8.545 6.035-5.006 0-9.077-4.074-9.077-9.08V35.811c0-5.007 4.07-9.08 9.077-9.08 4.85 0 8.82 3.832 9.06 8.628 1.099-.38 2.261-.592 3.45-.592 7.141 0 10.544 5.161 10.869 10.542l.503.453c.344-.023.696-.036 1.047-.036 8.457 0 15.341 6.883 15.341 15.342 0 2.923-.847 5.73-2.349 8.128 4.335 2.269 7.112 6.742 7.112 11.788zM99.638 59.199l.897 3.737c.346-.078 8.345-1.86 11.607 5.418l3.507-1.576c-3.664-8.173-12.074-8.53-16.01-7.58zm10.782 35.174c.067.235 1.552 5.868-4.147 9.336l1.995 3.284c6.608-4.021 6.714-10.71 5.844-13.687l-3.692 1.067zm-39.971-67.64c5.006 0 9.08 4.071 9.08 9.078v90.345c0 5.006-4.074 9.08-9.08 9.08-3.938 0-7.284-2.525-8.537-6.036a11.874 11.874 0 0 1-7.864 1.59 11.92 11.92 0 0 1-7.892-4.68 11.922 11.922 0 0 1-2.378-7.48c-6.652-2.797-11.334-9.377-11.334-17.033 0-2.865.65-5.608 1.837-8.065-5.196-1.858-8.86-6.845-8.86-12.548 0-5.045 2.779-9.52 7.112-11.788a15.328 15.328 0 0 1-2.348-8.129c0-8.458 6.882-15.34 15.339-15.34.351 0 .7.012 1.05.035l.504-.455c.328-5.38 3.727-10.54 10.864-10.54 1.192 0 2.356.213 3.457.593.237-4.796 4.196-8.628 9.05-8.628zm5.235 19.353V35.81a5.24 5.24 0 0 0-5.235-5.234 5.24 5.24 0 0 0-5.233 5.234c0 .876.229 1.73.64 2.489.265.293.517.597.75.922l-1.643 1.174-1.48 1.238a8.883 8.883 0 0 1-.712-.997 6.816 6.816 0 0 0-4.83-2.027c-6.544 0-7.049 5.796-7.049 7.57v.854l-3.024 2.741-.875-.11c-.481-.062-.971-.094-1.469-.094-6.34 0-11.495 5.157-11.495 11.496 0 4.449 2.604 8.54 6.635 10.424l-1.624 3.482a15.256 15.256 0 0 1-3.991-2.72 9.426 9.426 0 0 0-5.782 8.73c0 4.352 2.993 8.117 7.117 9.18a18.47 18.47 0 0 1 7.649-5.712l1.433 3.566a14.568 14.568 0 0 0-9.178 13.58c0 8.066 6.561 14.626 14.625 14.626v3.844c-1.112 0-2.195-.116-3.254-.304a8.098 8.098 0 0 0 1.574 4.044 8.11 8.11 0 0 0 5.361 3.179 8.09 8.09 0 0 0 6.04-1.544 8.106 8.106 0 0 0 3.179-5.359l3.802.545a11.9 11.9 0 0 1-2.394 5.637 5.237 5.237 0 0 0 5.228 5.126 5.24 5.24 0 0 0 5.235-5.235v-14.753c-.263-1.258-2.362-9.778-10.488-9.884l.05-3.843c4.772.062 8.153 2.289 10.438 5.054V73.783c-1.444-.162-3.756-.172-5.736.965-1.729.993-2.93 2.734-3.576 5.178l-3.716-.983c.92-3.489 2.741-6.028 5.41-7.548 2.682-1.526 5.612-1.642 7.618-1.47V49.927c-1.368-.083-3.494.27-4.978 2.83l-3.327-1.924c2.238-3.87 5.667-4.831 8.305-4.747zM48.347 66.778c3.668-8.173 12.07-8.532 16.011-7.579l-.502 2.073-.394 1.664-.01-.001c-.42-.096-8.354-1.818-11.597 5.418l-3.508-1.575zm5.235 27.595c-.067.235-1.557 5.868 4.148 9.336l-1.998 3.284c-6.611-4.021-6.717-10.712-5.847-13.689l1.95.57 1.747.499zm26.496-78.326V0h3.844v16.047h-3.844zm-29.39 7.874l-3.327 1.923-8.024-13.896 3.327-1.922 8.025 13.895zM25.843 47.359l-1.922 3.328-13.891-8.023 1.918-3.329 13.895 8.024zM0 83.922V80.08h16.047v3.843H0zm10.029 37.413l13.89-8.022 1.923 3.328-13.895 8.023-1.918-3.329zm29.309 30.719l8.022-13.898 3.329 1.923-8.026 13.896-3.325-1.921zM80.078 164v-16.047h3.844V164h-3.844zm33.234-23.92l3.328-1.923 8.026 13.897-3.329 1.921-8.025-13.896zm24.842-23.439l1.923-3.329 13.895 8.024-1.918 3.329-13.9-8.024zm9.8-32.719V80.08H164v3.843h-16.046zm6.018-41.258l-13.895 8.023-1.923-3.328 13.9-8.024 1.918 3.33zm-29.306-30.716l-8.025 13.895-3.33-1.922 8.027-13.896 3.328 1.923z"/>
</svg>
