<svg xmlns="http://www.w3.org/2000/svg" width="117" height="164" viewBox="0 0 117 164">
    <path fill="#1E1B1B" fill-rule="nonzero" d="M9.71 65.018V52.083c0-12.793 3.209-24.57 9.95-33.316C28.598 7.173 43.459 0 58.264 0 70.497 0 82.07 4.279 90.451 12.29c10.232 9.779 16.365 25.01 16.365 39.793v12.935h9.71V164H0V65.018h9.71zm11.653 0h73.8V52.083c0-11.689-4.9-23.86-12.766-31.378-6.126-5.854-14.795-9.06-24.134-9.06-11.22 0-22.66 5.521-29.37 14.228-4.992 6.476-7.53 15.79-7.53 26.21v12.935zm-9.71 87.337h93.22V76.663h-93.22v75.692zm41.755-27.897c-6.748-2.072-11.653-8.35-11.653-15.772 0-9.11 7.391-16.497 16.508-16.497 9.117 0 16.508 7.386 16.508 16.497 0 7.423-4.905 13.7-11.653 15.772v13.34h-9.71v-13.34zm4.855-8.979a6.795 6.795 0 0 0 6.798-6.793 6.795 6.795 0 0 0-6.798-6.793 6.795 6.795 0 0 0-6.797 6.793 6.795 6.795 0 0 0 6.797 6.793z"/>
</svg>
