<svg xmlns="http://www.w3.org/2000/svg" width="141" height="164" viewBox="0 0 141 164">
    <path fill="#1E1B1B" fill-rule="nonzero" d="M46.161 27.405l3.357 9.23C25.863 45.288 9.798 67.912 9.798 93.58c0 33.465 27.052 60.594 60.423 60.594 33.37 0 60.423-27.129 60.423-60.594 0-25.752-16.169-48.433-39.934-57.022l3.322-9.244c27.622 9.983 46.41 36.34 46.41 66.266 0 38.892-31.439 70.42-70.221 70.42C31.439 164 0 132.472 0 93.58c0-29.83 18.668-56.12 46.161-66.175zM65.731 0h9.797v65.51H65.73V0z"/>
</svg>
