<svg xmlns="http://www.w3.org/2000/svg" width="164" height="164" viewBox="0 0 164 164">
    <path fill="#1E1B1B" fill-rule="nonzero" d="M82 164c-45.287 0-82-36.713-82-82S36.713 0 82 0s82 36.713 82 82-36.713 82-82 82zm46.59-82.097l-46.818 46.688-7.53-7.566L107.75 87.35h-72.34V76.649h72.34L74.243 42.975l7.529-7.566 46.819 46.494zM82 152.818c39.112 0 70.818-31.706 70.818-70.818 0-39.112-31.706-70.818-70.818-70.818-39.112 0-70.818 31.706-70.818 70.818 0 39.112 31.706 70.818 70.818 70.818z"/>
</svg>
