<svg xmlns="http://www.w3.org/2000/svg" width="164" height="164" viewBox="0 0 164 164">
    <path fill="#1E1B1B" fill-rule="nonzero" d="M51.45 73.122l8.91 8.886-9.917 9.93a38.01 38.01 0 0 0-37.005 9.12c-12.473 12.43-14.67 28.818-5.832 43.91l2.358 3.904 18.485-18.295 7.811.234.36 7.951-18.503 18.492 4.212 2.303A34.843 34.843 0 0 0 39.158 164a36.529 36.529 0 0 0 25.846-11.333c11.321-11.297 14.29-26.461 8.081-40.078l8.874-8.995 9.917 9.912a38.03 38.03 0 0 0 9.161 37.039 35.412 35.412 0 0 0 25.198 11.134 36.768 36.768 0 0 0 18.665-5.396l3.978-2.32-18.323-18.475.234-7.789 7.955-.36 18.52 18.475 2.305-4.21c7.811-14.247 5.165-30.58-6.912-42.687-11.303-11.26-26.476-14.229-40.1-8.04l-9-8.869 9.917-9.912a38.082 38.082 0 0 0 37.005-9.174c12.438-12.43 14.58-28.781 5.742-43.892l-2.268-3.993-18.556 18.294-7.758-.216-.324-7.879L145.8 6.744l-4.212-2.303c-14.237-7.825-30.598-5.18-42.693 6.908-11.285 11.297-14.273 26.443-8.063 40.079l-8.873 8.994-9.918-9.912a38.103 38.103 0 0 0-9.161-36.966C50.443 1.06 34.01-1.063 18.963 7.769l-3.995 2.285 18.304 18.528-.216 7.753-7.901.342L6.652 18.203l-2.304 4.191C-3.373 36.425-.655 53.226 11.26 65.081c11.303 11.279 26.494 14.247 40.19 8.04zm59.648 26.55l2.358-1.276c11.411-6.152 24.496-3.994 34.198 5.612 8.459 8.455 11.213 19.446 7.685 29.627L141.696 120l-17.783.791-.558 17.557 13.68 13.816c-10.8 4.55-21.94 2.194-30.904-6.782-8.964-8.976-10.025-22.54-6.75-31.678l.774-2.14L87.07 98.485l6.75-6.746 4.715-4.713 12.563 12.646zM98.373 50.51C92.2 39.105 94.36 26.046 103.99 16.422c8.46-8.455 19.456-11.207 29.626-7.7l-13.643 13.636.756 17.737 17.548.503 13.877-13.707c4.572 10.901 2.214 21.982-6.75 30.94-9.196 9.21-22.533 10.038-31.677 6.764l-2.142-.773L98.5 76.899l-9.665 9.678-24.568 24.573 1.278 2.356c6.173 11.405 4.013 24.465-5.616 34.07-8.46 8.455-19.456 11.207-29.626 7.7l13.643-13.636-.792-17.79-17.584-.468-13.805 13.653c-4.554-10.793-2.178-21.928 6.803-30.886 8.982-8.959 22.535-10.02 31.678-6.728l2.16.774 47.318-47.31-1.35-2.375zM8.65 30.363l13.643 13.635 17.765-.755.504-17.521-13.733-13.87c10.925-4.568 21.994-2.23 30.957 6.728a30.856 30.856 0 0 1 6.768 31.66l-.774 2.141 13.085 13.078-11.447 11.44-12.6-12.592-2.357 1.278c-11.411 6.152-24.478 4.011-34.198-5.595-8.387-8.454-11.14-19.445-7.613-29.627z"/>
</svg>
