<svg xmlns="http://www.w3.org/2000/svg" width="125" height="164" viewBox="0 0 125 164">
    <path fill="#1E1B1B" fill-rule="evenodd" d="M120.458 106.446l-10.144 2.034-.208 1.277a48.69 48.69 0 0 1-8.526 20.552l-.754 1.05 5.738 8.615-6.402 6.404-8.62-5.739-1.05.757a48.738 48.738 0 0 1-20.553 8.522l-1.276.205-2.038 10.144h-9.06l-2.031-10.144-1.278-.205a48.735 48.735 0 0 1-20.558-8.522l-1.048-.757-8.617 5.739-6.403-6.404 5.737-8.618-.756-1.047c-4.38-6.077-7.33-13.185-8.527-20.552l-.204-1.277-10.147-2.034V97.39l10.147-2.032.204-1.278a48.618 48.618 0 0 1 8.527-20.552l.756-1.051-5.737-8.617 6.403-6.4 8.617 5.735 1.048-.756c4.663-3.355 10.674-6.104 16.762-7.706v11.175c-15.748 5.02-26.64 19.83-26.64 36.465 0 21.102 17.172 38.271 38.276 38.271 21.106 0 38.276-17.17 38.276-38.271 0-16.625-10.893-31.443-26.639-36.464V54.707a48.195 48.195 0 0 1 16.76 7.732l1.048.756 8.62-5.736 6.403 6.4-5.738 8.618.754 1.05a48.702 48.702 0 0 1 8.526 20.553l.208 1.278 10.144 2.032v9.056zM50.46 134.889c-13.34-4.785-22.912-17.55-22.912-32.516 0-14.61 9.312-27.66 22.912-32.523v65.04zM43.322 21.745c0-6.43 3.293-12.346 8.595-15.765v9.064l10.416 8.779 10.446-8.776v-8.72c4.998 3.456 8.09 9.228 8.09 15.418 0 6.91-3.793 13.244-9.887 16.531l-.98.53v97.181a34.524 34.524 0 0 1-7.906.923c-2.72 0-5.363-.326-7.903-.923V38.806l-.983-.53a18.771 18.771 0 0 1-9.888-16.531zM73.733 69.85c13.594 4.865 22.913 17.92 22.913 32.522 0 14.964-9.573 27.73-22.913 32.516V69.85zm39.83 22.351a52.45 52.45 0 0 0-8.207-19.793l6.01-9.026-10.73-10.726-9.025 6.009a51.597 51.597 0 0 0-17.878-7.8v-9.864a22.495 22.495 0 0 0 10.865-19.257c0-8.666-5.058-16.647-12.888-20.333L69.047.163v13.143l-6.706 5.64-6.693-5.638V0l-2.62 1.154a22.508 22.508 0 0 0-13.437 20.59 22.491 22.491 0 0 0 10.87 19.258v9.886c-6.391 1.562-12.777 4.332-17.875 7.779l-9.031-6.01-10.732 10.726 6.01 9.024a52.569 52.569 0 0 0-8.206 19.795L0 94.332v15.173l10.627 2.13a52.555 52.555 0 0 0 8.207 19.793l-6.011 9.024 10.732 10.729 9.027-6.01a52.513 52.513 0 0 0 19.797 8.209L54.512 164h15.173l2.129-10.623a52.445 52.445 0 0 0 19.797-8.205l9.024 6.009 10.731-10.729-6.01-9.024a52.45 52.45 0 0 0 8.207-19.793l10.622-2.13V94.332l-10.622-2.13z"/>
</svg>
