<svg xmlns="http://www.w3.org/2000/svg" width="164" height="159" viewBox="0 0 164 159">
    <path fill="#1E1B1B" fill-rule="evenodd" d="M119.119 95.67l-2.297 5.76-7.742-1.439c-3.574 5.997-8.002 10.745-13.541 13.896l1.614 7.722-5.687 2.439-4.463-6.5c-6.267 1.677-12.7 1.957-19.384.233l-4.299 6.603-5.743-2.307 1.426-7.754c-5.249-2.772-9.877-7.28-13.86-13.573l-7.71 1.621L35 96.669l6.489-4.47c-1.83-6.35-1.806-12.831-.236-19.42l-6.586-4.312 2.298-5.759 7.742 1.437c3.518-6.098 8.074-10.674 13.542-13.895l-1.616-7.72 5.687-2.44 4.463 6.5c6.354-1.81 12.82-1.832 19.382-.234l4.3-6.6 5.747 2.305-1.427 7.754c5.768 3.301 10.418 7.787 13.858 13.572l7.711-1.62 2.432 5.7-6.481 4.47c1.767 6.36 1.855 12.83.231 19.42l6.583 4.313zm-2.544-22.087a40.776 40.776 0 0 1 .198 16.03l7.005 4.588-4.602 11.51-8.226-1.524a40.77 40.77 0 0 1-11.18 11.465l1.71 8.214-11.37 4.88-4.747-6.915a40.385 40.385 0 0 1-15.997.196l-4.58 7.02-11.49-4.611 1.52-8.244a40.824 40.824 0 0 1-11.44-11.205l-8.193 1.72-4.876-11.4 6.905-4.753a40.843 40.843 0 0 1-.2-16.03l-7.005-4.587 4.605-11.513 8.225 1.526a40.694 40.694 0 0 1 11.189-11.465l-1.72-8.214 11.377-4.88 4.739 6.916a40.396 40.396 0 0 1 15.999-.197l4.581-7.02 11.488 4.61-1.522 8.246A40.664 40.664 0 0 1 110.41 59.15l8.195-1.72 4.872 11.399-6.902 4.754zM98.176 90.607c-3.509 8.77-11.862 14.439-21.29 14.439-2.916 0-5.777-.558-8.51-1.653C56.64 98.683 50.92 85.288 55.61 73.53c3.512-8.77 11.864-14.438 21.293-14.438 2.913 0 5.782.557 8.519 1.653 11.725 4.709 17.455 18.106 12.755 29.863zm-11.36-33.374a26.491 26.491 0 0 0-9.914-1.925c-10.975 0-20.712 6.601-24.795 16.817-5.475 13.693 1.196 29.296 14.864 34.78a26.51 26.51 0 0 0 9.916 1.924c10.98 0 20.71-6.601 24.793-16.816 5.474-13.694-1.195-29.298-14.864-34.78zM3.969 85.98c.089 1.186.191 2.419.326 3.696l-3.75.405a92.295 92.295 0 0 1-.34-3.842l3.764-.259zM1.236 95.18l3.725-.603c.189 1.189.412 2.406.658 3.656l-3.7.736a112.624 112.624 0 0 1-.683-3.79zM3.77 80.126l.01.923-3.78.043v-.966c0-1.019.013-1.988.047-2.905l3.772.131c-.032.877-.049 1.801-.049 2.774zm.867-11.31c-.153.888-.335 2.11-.486 3.633l-3.754-.386a59.05 59.05 0 0 1 .516-3.87C5.521 40.636 25.002 17.495 51.075 8.031l-9.298-4.649L43.464 0l15.052 7.53-7.51 15.087-3.384-1.692 4.642-9.306C27.495 20.648 9.007 42.638 4.637 68.817zm107.406-57.365l-1.701 3.376a95.988 95.988 0 0 0-3.34-1.604l1.57-3.44c1.206.552 2.368 1.111 3.47 1.668zm-8.201-3.678l-1.377 3.521c-1.12-.443-2.284-.873-3.471-1.294l1.243-3.568c1.244.433 2.45.885 3.605 1.341zm16.024 8.139l-2.039 3.183a83.455 83.455 0 0 0-3.154-1.921l1.887-3.274c1.19.69 2.289 1.362 3.306 2.012zm42.089 73.635l2.045 3.18-14.145 9.133-9.12-14.172 3.179-2.05 5.618 8.74c4.887-25.944-4.558-53.095-24.793-70.226a57.764 57.764 0 0 0-2.87-2.268l2.25-3.039c1.308.973 2.328 1.8 3.061 2.418 21.296 18.03 31.219 46.622 26.037 73.924l8.738-5.64zm-60.149 60.9a58.428 58.428 0 0 0 3.407-1.318l1.465 3.487a60.15 60.15 0 0 1-3.637 1.403 76.503 76.503 0 0 1-25.15 4.227c-18.746 0-37.257-6.804-51.59-19.478l.379 10.387-3.764.14-.627-16.848 16.816-.623.142 3.778-10.372.386c19.776 17.445 47.9 23.157 72.931 14.459zm15.34-7.653a82.397 82.397 0 0 0 3.082-2.056l2.155 3.105c-1.093.762-2.16 1.473-3.2 2.141l-2.037-3.19zm7.061-4.985a97.38 97.38 0 0 0 2.883-2.332l2.425 2.9a99.148 99.148 0 0 1-2.992 2.419l-2.316-2.987zm-14.543 9.26a79.023 79.023 0 0 0 3.26-1.738l1.855 3.3a95.567 95.567 0 0 1-3.417 1.816l-1.698-3.378z"/>
</svg>
