<svg xmlns="http://www.w3.org/2000/svg" width="164" height="164" viewBox="0 0 164 164">
    <path fill="#1E1B1B" fill-rule="nonzero" d="M151.775 95.232a71.114 71.114 0 0 0-.348-27.992l12.104-8.307-8.564-19.836-14.344 3.026a71.113 71.113 0 0 0-20.002-19.67l2.663-14.404L103.19 0l-8.019 12.256a70.81 70.81 0 0 0-27.991.348L58.888.499 38.991 9.018l3.027 14.344a71.114 71.114 0 0 0-19.58 20.017L8.05 40.716 0 60.825l12.256 8.004a71.114 71.114 0 0 0 .348 27.991L.499 105.127l8.534 19.897 14.329-3.026a71.325 71.325 0 0 0 20.017 19.563l-2.663 14.39L60.81 164l8.019-12.256a70.796 70.796 0 0 0 27.991-.348l8.307 12.105 19.897-8.519-3.026-14.344a71.235 71.235 0 0 0 19.563-20.017l14.39 2.663L164 103.19l-12.225-7.958zm.09 20.638l-13.617-2.512c-6.25 10.47-13.996 18.762-23.695 24.209l2.83 13.481-9.941 4.252-7.807-11.348a65.576 65.576 0 0 1-33.908.409l-7.565 11.529-10.047-4.025 2.497-13.542c-9.185-4.841-17.28-12.71-24.21-23.694l-13.48 2.83-4.252-9.956 11.348-7.808a65.515 65.515 0 0 1-.409-33.907L8.095 58.222l4.025-10.061 13.617 2.511a65.485 65.485 0 0 1 23.694-24.209l-2.829-13.481 9.956-4.252 7.807 11.348a65.485 65.485 0 0 1 33.908-.408l7.565-11.53 10.047 4.025-2.497 13.542a65.53 65.53 0 0 1 24.21 23.694l13.496-2.83 4.251 9.957-11.454 7.852a65.682 65.682 0 0 1 .409 33.908l11.514 7.565-3.949 10.017zM99.362 38.704a46.723 46.723 0 1 0 26.01 60.719 46.405 46.405 0 0 0-26.01-60.72zm19.867 58.268a40.126 40.126 0 1 1-22.242-52.14 39.945 39.945 0 0 1 22.242 52.14z"/>
</svg>
