<svg xmlns="http://www.w3.org/2000/svg" width="164" height="122" viewBox="0 0 164 122">
    <path fill="#1E1B1B" fill-rule="evenodd" d="M52.756 79.002L50.1 76.345l35.988-35.977 16.767 16.756 37.727-37.719h-8.257V15.65h14.62v14.618h-3.755v-8.16l-40.335 40.328-16.767-16.758-33.332 33.324zM16.13 0h3.756v5.178h30.73v6.686h20.849l-7.69 14.42 7.69 14.417H35.729v-6.688H19.885v65.216H40.06V86.802h40.062v-11.97h40.064v-12.43H164v59.4H0V99.228h16.129V0zm3.756 30.258h26.973V8.933H19.885v21.325zm19.599 3.755v2.933h25.719l-5.689-10.663 5.689-10.662H50.614v18.392h-11.13zm84.457 40.819v43.216h36.309V66.156H123.94v8.676zm-40.06 11.97v31.246h36.306V78.586H83.881v8.216zM43.82 99.229v18.819h36.304v-27.49H43.82v8.671zm-40.063 3.756v15.063h36.305v-15.063H3.756z"/>
</svg>
