<svg xmlns="http://www.w3.org/2000/svg" width="147" height="164" viewBox="0 0 147 164">
    <path fill="#1E1B1B" fill-rule="nonzero" d="M135.316 164v-48.216c-.015-18.497-14.145-33.931-32.587-35.597l-20.505 38.121H63.926l-20.505-38.12c-18.431 1.679-32.545 17.11-32.559 35.596V164H0v-48.216c.032-25.719 20.897-46.56 46.645-46.592h3.224l20.563 38.266h5.257l20.563-38.266h3.253c25.748.032 46.613 20.873 46.645 46.592V164h-10.834zM73.104 62.955c-12.748.012-24.248-7.65-29.135-19.411A31.45 31.45 0 0 1 50.782 9.23a31.539 31.539 0 0 1 34.346-6.837c11.779 4.87 19.46 16.35 19.46 29.084-.016 17.366-14.098 31.445-31.484 31.477zM52.483 31.478c0 11.376 9.232 20.598 20.62 20.598 11.39 0 20.622-9.222 20.622-20.598-.016-11.37-9.239-20.582-20.621-20.598-11.389 0-20.621 9.222-20.621 20.598z"/>
</svg>
