<svg xmlns="http://www.w3.org/2000/svg" width="164" height="164" viewBox="0 0 164 164">
    <path fill="#1E1B1B" fill-rule="nonzero" d="M12 152h140V12H12v140zM0 0h164v164H0V0zm97.333 83.631c18.932 0 33.667 11.443 33.667 28.996V141h-10v-28.373c0-9.943-7.445-16.994-18.562-18.633l-12.974 23.93H75.126l-11.61-24.49C52.59 95.257 45 102.666 45 112.627V141H35v-28.373C35 95.027 50.06 83 68.876 83v.02L69 83l12.452 24.923h2.059l13.822-24.292zM24 0h12v23H24V0zm34.667 0h12v23h-12V0zm34.666 0h12v23h-12V0zM128 0h12v23h-12V0zM81.5 81C70.73 81 62 72.27 62 61.5S70.73 42 81.5 42 101 50.73 101 61.5 92.27 81 81.5 81zm0-10a9.5 9.5 0 1 0 0-19 9.5 9.5 0 0 0 0 19z"/>
</svg>
